<svg width="24" height="24" viewBox="0 0 24 24" fill="none" xmlns="http://www.w3.org/2000/svg">
<path d="M12 13.5C13.0603 13.5 14.104 13.6242 15.1318 13.873C16.1576 14.1215 17.1708 14.4942 18.1699 14.9932V14.9941C18.5704 15.2013 18.8915 15.5 19.1367 15.8994C19.3791 16.2942 19.5 16.7244 19.5 17.2002V19.5H4.5V17.2002C4.5 16.7244 4.62093 16.2942 4.86328 15.8994C5.10854 15.5 5.42963 15.2013 5.83008 14.9941L5.8291 14.9932C6.82852 14.494 7.84208 14.1216 8.86816 13.873C9.89603 13.6242 10.9397 13.5 12 13.5ZM12 14.5C11.026 14.5 10.0607 14.6171 9.10547 14.8516C8.15052 15.086 7.20733 15.4369 6.27637 15.9023L6.2666 15.9072L6.25684 15.9131C6.02961 16.0394 5.84641 16.2178 5.71094 16.4395C5.56922 16.6714 5.5 16.929 5.5 17.2002V18.5H18.5V17.2002C18.5 16.929 18.4308 16.6714 18.2891 16.4395C18.1536 16.2178 17.9704 16.0394 17.7432 15.9131L17.7334 15.9072L17.7236 15.9023L17.374 15.7334C16.5567 15.3512 15.7302 15.0567 14.8945 14.8516C13.9393 14.6171 12.974 14.5 12 14.5ZM12 4.5C12.906 4.5 13.6789 4.79724 14.3408 5.40332L14.4717 5.52832C15.162 6.21863 15.5 7.03366 15.5 8C15.5 8.96634 15.162 9.78137 14.4717 10.4717C13.7814 11.162 12.9663 11.5 12 11.5C11.0337 11.5 10.2186 11.162 9.52832 10.4717C8.83801 9.78137 8.5 8.96634 8.5 8C8.5 7.09397 8.79724 6.32108 9.40332 5.65918L9.52832 5.52832C10.2186 4.83801 11.0337 4.5 12 4.5ZM12 5.5C11.3163 5.5 10.7191 5.74969 10.2344 6.23438C9.74969 6.71906 9.5 7.31634 9.5 8C9.5 8.68366 9.74969 9.28094 10.2344 9.76562C10.7191 10.2503 11.3163 10.5 12 10.5C12.6837 10.5 13.2809 10.2503 13.7656 9.76562C14.2503 9.28094 14.5 8.68366 14.5 8C14.5 7.31634 14.2503 6.71906 13.7656 6.23438C13.2809 5.74969 12.6837 5.5 12 5.5Z" fill="#1D1B20" stroke="#DBDFE9"/>
</svg>
