<svg width="19" height="18" viewBox="0 0 19 18" fill="none" xmlns="http://www.w3.org/2000/svg">
<path d="M15.2 15.75L10.475 11.025C10.1 11.325 9.66875 11.5625 9.18125 11.7375C8.69375 11.9125 8.175 12 7.625 12C6.2625 12 5.10938 11.5281 4.16563 10.5844C3.22188 9.64062 2.75 8.4875 2.75 7.125C2.75 5.7625 3.22188 4.60938 4.16563 3.66563C5.10938 2.72188 6.2625 2.25 7.625 2.25C8.9875 2.25 10.1406 2.72188 11.0844 3.66563C12.0281 4.60938 12.5 5.7625 12.5 7.125C12.5 7.675 12.4125 8.19375 12.2375 8.68125C12.0625 9.16875 11.825 9.6 11.525 9.975L16.25 14.7L15.2 15.75ZM7.625 10.5C8.5625 10.5 9.35938 10.1719 10.0156 9.51562C10.6719 8.85938 11 8.0625 11 7.125C11 6.1875 10.6719 5.39062 10.0156 4.73438C9.35938 4.07812 8.5625 3.75 7.625 3.75C6.6875 3.75 5.89062 4.07812 5.23438 4.73438C4.57812 5.39062 4.25 6.1875 4.25 7.125C4.25 8.0625 4.57812 8.85938 5.23438 9.51562C5.89062 10.1719 6.6875 10.5 7.625 10.5Z" fill="#DBDFE9"/>
</svg>
